<svg role="img" viewBox="0 0 6 6" xmlns="http://www.w3.org/2000/svg" id="Bluesky--Streamline-Simple-Icons" height="6" width="6">
  <desc>
    Bluesky Streamline Icon: https://streamlinehq.com
  </desc>
  <title>Bluesky</title>
  <path d="M3 2.7c-0.27175 -0.5285 -1.0115 -1.51325 -1.6995 -1.99875C0.6415 0.236 0.39025 0.3165 0.2255 0.39125 0.03475 0.477 0 0.77 0 0.942c0 0.1725 0.0945 1.4125 0.156 1.61975 0.20375 0.684 0.92825 0.915 1.59575 0.841 0.034 -0.005 0.06875 -0.00975 0.10375 -0.014 -0.0345 0.0055 -0.069 0.01 -0.10375 0.014 -0.978 0.145 -1.84675 0.50125 -0.7075 1.7695 1.25325 1.2975 1.7175 -0.27825 1.95575 -1.077 0.23825 0.79875 0.5125 2.31775 1.93325 1.077 1.06675 -1.077 0.293 -1.6245 -0.685 -1.7695a2.18525 2.18525 0 0 1 -0.10375 -0.014c0.035 0.00425 0.06975 0.009 0.10375 0.014 0.6675 0.07425 1.392 -0.157 1.59575 -0.841 0.0615 -0.207 0.156 -1.4475 0.156 -1.6195 0 -0.1725 -0.03475 -0.46525 -0.2255 -0.5515 -0.16475 -0.0745 -0.416 -0.155 -1.075 0.31C4.0115 1.187 3.27175 2.17175 3 2.7Z" fill="#ffffffff" stroke-width="0.25"></path>
</svg>